<svg xmlns="http://www.w3.org/2000/svg" viewBox="0 0 128.33 26.88"><defs><style>.cls-1{fill:#cecece;}</style></defs><g id="Layer_2" data-name="Layer 2"><g id="Layer_1-2" data-name="Layer 1"><path class="cls-1" d="M128.33,0a16.8,16.8,0,0,1-7.92,14.25A16.36,16.36,0,0,1,116.64,16a16.83,16.83,0,0,1-5.09.79,1.86,1.86,0,0,1,0-3.71A13.08,13.08,0,0,0,124.62,0Z"/><path class="cls-1" d="M0,8.46H12v3.17H3.84V16h7.38v3.17H3.84v7.5H0Z"/><path class="cls-1" d="M22.42,13H26.2V26.62H22.57V24.14h-.14a4.18,4.18,0,0,1-4.13,2.65c-2.74,0-4.61-1.94-4.61-5.12V13h3.77v8a2.33,2.33,0,0,0,2.36,2.6,2.56,2.56,0,0,0,2.6-2.78Z"/><path class="cls-1" d="M36.46,15.84H33.9v6.59c0,1.05.52,1.33,1.28,1.33a5.9,5.9,0,0,0,.94-.12l.59,2.81a7.31,7.31,0,0,1-2.05.35c-2.74.12-4.56-1.2-4.54-3.87V15.84H28.26V13h1.86V9.74H33.9V13h2.56Z"/><path class="cls-1" d="M47.65,13h3.78V26.62H47.8V24.14h-.14a4.17,4.17,0,0,1-4.13,2.65c-2.74,0-4.6-1.94-4.61-5.12V13H42.7v8a2.33,2.33,0,0,0,2.36,2.6,2.56,2.56,0,0,0,2.59-2.78Z"/><path class="cls-1" d="M54.45,13h3.66v2.38h.15a3.29,3.29,0,0,1,3.27-2.57,5.71,5.71,0,0,1,1.19.13v3.35a6.24,6.24,0,0,0-1.6-.2,2.74,2.74,0,0,0-2.89,2.82v7.71H54.45Z"/><path class="cls-1" d="M63.47,19.87c0-4.2,2.6-7,6.61-7,3.6,0,6.4,2.29,6.4,6.92v1H67.21a3,3,0,0,0,3.08,3.28,2.57,2.57,0,0,0,2.62-1.57l3.49.23c-.53,2.52-2.8,4.16-6.17,4.16C66,26.88,63.47,24.19,63.47,19.87Zm9.46-1.43a2.69,2.69,0,0,0-2.79-2.8,2.88,2.88,0,0,0-2.93,2.8Z"/><path class="cls-1" d="M85.77,11.42c-1.88,0-2.92.86-2.92,2s1.3,1.89,2.88,2.25l1.63.39c3.15.71,5.43,2.32,5.44,5.34,0,3.33-2.61,5.44-7,5.44s-7.21-2-7.31-5.95h3.71c.13,1.81,1.56,2.74,3.56,2.74s3.21-.91,3.22-2.24-1.11-1.79-3.09-2.27l-2-.49c-3.06-.74-5-2.27-4.94-4.95,0-3.3,2.9-5.5,6.88-5.5s6.7,2.24,6.75,5.47H88.87C88.73,12.26,87.61,11.42,85.77,11.42Z"/><path class="cls-1" d="M95.31,8.46h3.78v9.71h.2L103.65,13H108l-5.06,5.9,5.31,7.72h-4.42l-3.71-5.49-1,1.16v4.33H95.31Z"/><rect class="cls-1" x="109.84" y="18.65" width="3.78" height="7.97"/><path class="cls-1" d="M123.43,15.27V26.62h3.78V11.25A19.16,19.16,0,0,1,123.43,15.27Z"/><path class="cls-1" d="M116.63,18.4v8.22h3.78V16.81h0A16.84,16.84,0,0,1,116.63,18.4Z"/></g></g></svg>